<svg width="356" height="50" viewBox="0 0 356 50" fill="none" xmlns="http://www.w3.org/2000/svg">
<path d="M11.064 26.28H7.992V39H0.119995V5.73599H11.016C15.56 5.73599 18.968 6.56799 21.24 8.23199C23.544 9.89599 24.696 12.44 24.696 15.864C24.696 18.008 24.184 19.8 23.16 21.24C22.136 22.648 20.52 23.848 18.312 24.84L26.76 39H17.88L11.064 26.28ZM7.992 20.856H11.304C13.064 20.856 14.376 20.456 15.24 19.656C16.136 18.856 16.584 17.592 16.584 15.864C16.584 14.264 16.104 13.096 15.144 12.36C14.216 11.624 12.776 11.256 10.824 11.256H7.992V20.856Z" fill="#282828"/>
<path d="M49.3882 31.608C49.3882 32.568 49.5162 33.272 49.7722 33.72C50.0602 34.168 50.5082 34.504 51.1162 34.728L49.5322 39.672C47.9642 39.544 46.6842 39.208 45.6922 38.664C44.7002 38.088 43.9322 37.192 43.3882 35.976C41.7242 38.536 39.1642 39.816 35.7082 39.816C33.1802 39.816 31.1642 39.08 29.6602 37.608C28.1562 36.136 27.4042 34.216 27.4042 31.848C27.4042 29.064 28.4282 26.936 30.4762 25.464C32.5242 23.992 35.4842 23.256 39.3562 23.256H41.9482V22.152C41.9482 20.648 41.6282 19.624 40.9882 19.08C40.3482 18.504 39.2282 18.216 37.6282 18.216C36.7962 18.216 35.7882 18.344 34.6042 18.6C33.4202 18.824 32.2042 19.144 30.9562 19.56L29.2282 14.568C30.8282 13.96 32.4602 13.496 34.1242 13.176C35.8202 12.856 37.3882 12.696 38.8282 12.696C42.4762 12.696 45.1482 13.448 46.8442 14.952C48.5402 16.456 49.3882 18.712 49.3882 21.72V31.608ZM37.9162 34.392C39.6442 34.392 40.9882 33.576 41.9482 31.944V27.432H40.0762C38.3482 27.432 37.0522 27.736 36.1882 28.344C35.3562 28.952 34.9402 29.896 34.9402 31.176C34.9402 32.2 35.1962 33 35.7082 33.576C36.2522 34.12 36.9882 34.392 37.9162 34.392Z" fill="#282828"/>
<path d="M69.8291 12.696C73.0291 12.696 75.4131 13.88 76.9811 16.248C78.5491 18.616 79.3331 21.928 79.3331 26.184C79.3331 28.808 78.9171 31.16 78.0851 33.24C77.2851 35.288 76.1171 36.904 74.5811 38.088C73.0451 39.24 71.2531 39.816 69.2051 39.816C66.6451 39.816 64.5811 38.936 63.0131 37.176V48.84L55.4291 49.656V13.512H62.1011L62.4851 16.344C63.4771 15.096 64.6131 14.184 65.8931 13.608C67.1731 13 68.4851 12.696 69.8291 12.696ZM66.9011 34.248C69.9411 34.248 71.4611 31.592 71.4611 26.28C71.4611 23.272 71.1251 21.192 70.4531 20.04C69.7811 18.856 68.7731 18.264 67.4291 18.264C66.5651 18.264 65.7491 18.52 64.9811 19.032C64.2451 19.544 63.5891 20.28 63.0131 21.24V31.992C64.0371 33.496 65.3331 34.248 66.9011 34.248Z" fill="#282828"/>
<path d="M98.9977 12.696C101.206 12.696 102.934 13.368 104.182 14.712C105.43 16.056 106.054 17.944 106.054 20.376V39H98.4697V21.672C98.4697 20.392 98.2617 19.512 97.8457 19.032C97.4297 18.52 96.8377 18.264 96.0697 18.264C94.5337 18.264 93.0617 19.352 91.6537 21.528V39H84.0697V3.38399L91.6537 2.61599V16.248C92.7097 15.064 93.8297 14.184 95.0137 13.608C96.1977 13 97.5257 12.696 98.9977 12.696Z" fill="#282828"/>
<path d="M132.029 31.608C132.029 32.568 132.157 33.272 132.413 33.72C132.701 34.168 133.149 34.504 133.757 34.728L132.173 39.672C130.605 39.544 129.325 39.208 128.333 38.664C127.341 38.088 126.573 37.192 126.029 35.976C124.365 38.536 121.805 39.816 118.349 39.816C115.821 39.816 113.805 39.08 112.301 37.608C110.797 36.136 110.045 34.216 110.045 31.848C110.045 29.064 111.069 26.936 113.117 25.464C115.165 23.992 118.125 23.256 121.997 23.256H124.589V22.152C124.589 20.648 124.269 19.624 123.629 19.08C122.989 18.504 121.869 18.216 120.269 18.216C119.437 18.216 118.429 18.344 117.245 18.6C116.061 18.824 114.845 19.144 113.597 19.56L111.869 14.568C113.469 13.96 115.101 13.496 116.765 13.176C118.461 12.856 120.029 12.696 121.469 12.696C125.117 12.696 127.789 13.448 129.485 14.952C131.181 16.456 132.029 18.712 132.029 21.72V31.608ZM120.557 34.392C122.285 34.392 123.629 33.576 124.589 31.944V27.432H122.717C120.989 27.432 119.693 27.736 118.829 28.344C117.997 28.952 117.581 29.896 117.581 31.176C117.581 32.2 117.837 33 118.349 33.576C118.893 34.12 119.629 34.392 120.557 34.392Z" fill="#282828"/>
<path d="M160.294 25.752C160.294 26.808 160.246 27.72 160.15 28.488H144.358C144.614 30.632 145.222 32.136 146.182 33C147.142 33.864 148.47 34.296 150.166 34.296C151.19 34.296 152.182 34.12 153.142 33.768C154.102 33.384 155.142 32.808 156.262 32.04L159.382 36.264C156.406 38.632 153.094 39.816 149.446 39.816C145.318 39.816 142.15 38.6 139.942 36.168C137.734 33.736 136.63 30.472 136.63 26.376C136.63 23.784 137.094 21.464 138.022 19.416C138.95 17.336 140.31 15.704 142.102 14.52C143.894 13.304 146.038 12.696 148.534 12.696C152.214 12.696 155.094 13.848 157.174 16.152C159.254 18.456 160.294 21.656 160.294 25.752ZM152.854 23.592C152.79 19.688 151.414 17.736 148.726 17.736C147.414 17.736 146.39 18.216 145.654 19.176C144.95 20.136 144.518 21.72 144.358 23.928H152.854V23.592Z" fill="#282828"/>
<path d="M171.322 39.816C169.114 39.816 167.386 39.192 166.138 37.944C164.922 36.664 164.314 34.856 164.314 32.52V3.38399L171.898 2.56799V32.232C171.898 33.288 172.33 33.816 173.194 33.816C173.642 33.816 174.058 33.736 174.442 33.576L175.93 38.952C174.554 39.528 173.018 39.816 171.322 39.816Z" fill="#282828"/>
<path d="M190.339 39V5.73599H210.163L209.347 11.352H198.211V20.184H207.907V25.8H198.211V39H190.339Z" fill="#282828"/>
<path d="M234.122 25.752C234.122 26.808 234.074 27.72 233.978 28.488H218.186C218.442 30.632 219.05 32.136 220.01 33C220.97 33.864 222.298 34.296 223.994 34.296C225.018 34.296 226.01 34.12 226.97 33.768C227.93 33.384 228.97 32.808 230.09 32.04L233.21 36.264C230.234 38.632 226.922 39.816 223.274 39.816C219.146 39.816 215.978 38.6 213.77 36.168C211.562 33.736 210.458 30.472 210.458 26.376C210.458 23.784 210.922 21.464 211.85 19.416C212.778 17.336 214.138 15.704 215.93 14.52C217.722 13.304 219.866 12.696 222.362 12.696C226.042 12.696 228.922 13.848 231.002 16.152C233.082 18.456 234.122 21.656 234.122 25.752ZM226.682 23.592C226.618 19.688 225.242 17.736 222.554 17.736C221.242 17.736 220.218 18.216 219.482 19.176C218.778 20.136 218.346 21.72 218.186 23.928H226.682V23.592Z" fill="#282828"/>
<path d="M252.206 12.792C253.134 12.792 253.982 12.904 254.75 13.128L253.55 20.472C252.59 20.248 251.822 20.136 251.246 20.136C249.742 20.136 248.59 20.664 247.79 21.72C247.022 22.744 246.414 24.296 245.966 26.376V39H238.382V13.512H245.006L245.63 18.456C246.206 16.696 247.07 15.32 248.222 14.328C249.406 13.304 250.734 12.792 252.206 12.792Z" fill="#282828"/>
<path d="M271.472 12.792C272.4 12.792 273.248 12.904 274.016 13.128L272.816 20.472C271.856 20.248 271.088 20.136 270.512 20.136C269.008 20.136 267.856 20.664 267.056 21.72C266.288 22.744 265.68 24.296 265.232 26.376V39H257.648V13.512H264.272L264.896 18.456C265.472 16.696 266.336 15.32 267.488 14.328C268.672 13.304 270 12.792 271.472 12.792Z" fill="#282828"/>
<path d="M297.684 25.752C297.684 26.808 297.636 27.72 297.54 28.488H281.748C282.004 30.632 282.612 32.136 283.572 33C284.532 33.864 285.86 34.296 287.556 34.296C288.58 34.296 289.572 34.12 290.532 33.768C291.492 33.384 292.532 32.808 293.652 32.04L296.772 36.264C293.796 38.632 290.484 39.816 286.836 39.816C282.708 39.816 279.54 38.6 277.332 36.168C275.124 33.736 274.02 30.472 274.02 26.376C274.02 23.784 274.484 21.464 275.412 19.416C276.34 17.336 277.7 15.704 279.492 14.52C281.284 13.304 283.428 12.696 285.924 12.696C289.604 12.696 292.484 13.848 294.564 16.152C296.644 18.456 297.684 21.656 297.684 25.752ZM290.244 23.592C290.18 19.688 288.804 17.736 286.116 17.736C284.804 17.736 283.78 18.216 283.044 19.176C282.34 20.136 281.908 21.72 281.748 23.928H290.244V23.592Z" fill="#282828"/>
<path d="M309.529 13.512V39H301.945V13.512H309.529ZM305.689 0.071991C307.001 0.071991 308.073 0.487991 308.905 1.31999C309.769 2.11999 310.201 3.14399 310.201 4.39199C310.201 5.63999 309.769 6.67999 308.905 7.51199C308.073 8.31199 307.001 8.71199 305.689 8.71199C304.377 8.71199 303.305 8.31199 302.473 7.51199C301.641 6.67999 301.225 5.63999 301.225 4.39199C301.225 3.14399 301.641 2.11999 302.473 1.31999C303.305 0.487991 304.377 0.071991 305.689 0.071991Z" fill="#282828"/>
<path d="M329.316 12.792C330.244 12.792 331.092 12.904 331.86 13.128L330.66 20.472C329.7 20.248 328.932 20.136 328.356 20.136C326.852 20.136 325.7 20.664 324.9 21.72C324.132 22.744 323.524 24.296 323.076 26.376V39H315.492V13.512H322.116L322.74 18.456C323.316 16.696 324.18 15.32 325.332 14.328C326.516 13.304 327.844 12.792 329.316 12.792Z" fill="#282828"/>
<path d="M353.326 31.608C353.326 32.568 353.454 33.272 353.71 33.72C353.998 34.168 354.446 34.504 355.054 34.728L353.47 39.672C351.902 39.544 350.622 39.208 349.63 38.664C348.638 38.088 347.87 37.192 347.326 35.976C345.662 38.536 343.102 39.816 339.646 39.816C337.118 39.816 335.102 39.08 333.598 37.608C332.094 36.136 331.342 34.216 331.342 31.848C331.342 29.064 332.366 26.936 334.414 25.464C336.462 23.992 339.422 23.256 343.294 23.256H345.886V22.152C345.886 20.648 345.566 19.624 344.926 19.08C344.286 18.504 343.166 18.216 341.566 18.216C340.734 18.216 339.726 18.344 338.542 18.6C337.358 18.824 336.142 19.144 334.894 19.56L333.166 14.568C334.766 13.96 336.398 13.496 338.062 13.176C339.758 12.856 341.326 12.696 342.766 12.696C346.414 12.696 349.086 13.448 350.782 14.952C352.478 16.456 353.326 18.712 353.326 21.72V31.608ZM341.854 34.392C343.582 34.392 344.926 33.576 345.886 31.944V27.432H344.014C342.286 27.432 340.99 27.736 340.126 28.344C339.294 28.952 338.878 29.896 338.878 31.176C338.878 32.2 339.134 33 339.646 33.576C340.19 34.12 340.926 34.392 341.854 34.392Z" fill="#282828"/>
</svg>
